<?xml version="1.0" encoding="UTF-8"?>
<svg width="100" height="100" viewBox="0 0 100 100" fill="none" xmlns="http://www.w3.org/2000/svg">
    
    <!-- Tower of Hercules as main icon -->
    <path d="M45,30 L45,10 L55,10 L55,30 L60,30 L60,70 L40,70 L40,30 Z" fill="#8B4513"/>
    
    <!-- Beacon light -->
    <circle cx="50" cy="8" r="4" fill="#FFA500"/>
    
    <!-- Medical cross integrated -->
    <path d="M70,50 L75,50 L75,55 L80,55 L80,50 L85,50 L85,45 L80,45 L80,40 L75,40 L75,45 L70,45 Z" 
          fill="#00697C"/>
    
    <!-- Wave base for coastal location -->
    <path d="M30,80 Q50,75 70,80 Q90,85 70,82 Q50,79 30,82 Q10,85 30,80Z" 
          fill="#00697C" opacity="0.7"/>
    
</svg>
