<?xml version="1.0" encoding="UTF-8"?>
<svg width="200" height="200" viewBox="0 0 200 200" fill="none" xmlns="http://www.w3.org/2000/svg">
    
    <!-- Circular background -->
    <circle cx="100" cy="100" r="95" fill="#E6F4F7" stroke="#00697C" stroke-width="2"/>
    
    <!-- Ocean/water base -->
    <path d="M30,140 Q100,160 170,140 L170,180 L30,180 Z" fill="#4A90E2" opacity="0.7"/>
    
    <!-- Tower of Hercules (simplified iconic shape) -->
    <path d="M90,80 L90,40 L110,40 L110,80 L120,80 L120,140 L80,140 L80,80 Z" fill="#8B7355"/>
    
    <!-- Tower windows/details -->
    <rect x="95" y="60" width="10" height="10" fill="#F2E8D5"/>
    <rect x="95" y="100" width="10" height="10" fill="#F2E8D5"/>
    <rect x="88" y="120" width="24" height="15" fill="#D4B483"/>
    
    <!-- Tower light/beacon -->
    <circle cx="100" cy="35" r="8" fill="#FFD700"/>
    <path d="M100,27 L100,20 M100,43 L100,50 M85,35 L75,35 M115,35 L125,35" stroke="#FFD700" stroke-width="2"/>
    
    <!-- Medical cross integrated into tower or nearby -->
    <path d="M140,110 L150,110 L150,120 L160,120 L160,110 L170,110 L170,100 L160,100 L160,90 L150,90 L150,100 L140,100 Z" 
          fill="#00697C"/>
    
    <!-- Lung shapes integrated as clouds/side elements -->
    <path d="M40,100 Q55,85 70,100 Q85,115 70,125 Q55,135 40,120 Q25,105 40,100Z" 
          fill="#00697C" opacity="0.6"/>
    
    <path d="M130,70 Q145,55 160,70 Q175,85 160,95 Q145,105 130,90 Q115,75 130,70Z" 
          fill="#00697C" opacity="0.6"/>
    
    <!-- Text label (optional, small) -->
    <text x="100" y="180" text-anchor="middle" font-family="Arial" font-size="10" fill="#00697C">NEUMOLOGÍA</text>
    
</svg>
